<?xml version="1.0" encoding="utf-8"?>
<svg version="1.1" xmlns="http://www.w3.org/2000/svg" xmlns:xlink="http://www.w3.org/1999/xlink"
	 viewBox="0 0 34 36" width="34" height="36">
<path fill="#ffffff" d="M24,9V6c0-1.657-1.343-3-3-3h-8c-1.657,0-3,1.343-3,3v3H3v21c0,1.657,1.343,3,3,3h0.069
	C5.361,31.471,5,29.806,5,28c0-2.093,0.516-4.062,1.547-5.906l4.875,8.531c0.463,0.955,1.15,1.742,2.042,2.375h7.738l0.861-1.484
	c0.718-1.062,1.078-2.234,1.078-3.516c0-1.718-0.609-3.187-1.828-4.406h6.844C28.719,25,29,26.469,29,28c0,1.811-0.366,3.474-1.07,5
	H28c1.657,0,3-1.343,3-3V9H24z M12,6c0-0.552,0.448-1,1-1h8c0.552,0,1,0.448,1,1v3H12V6z M21.359,28c0,1.188-0.43,2.211-1.289,3.07
	c-0.86,0.86-1.883,1.289-3.07,1.289c-1.188,0-2.211-0.429-3.07-1.289c-0.86-0.859-1.289-1.882-1.289-3.07
	c0-1.187,0.429-2.211,1.289-3.07c0.859-0.859,1.882-1.289,3.07-1.289c1.187,0,2.211,0.43,3.07,1.289
	C20.929,25.789,21.359,26.813,21.359,28z M17.516,21.906c-0.157-0.031-0.328-0.047-0.516-0.047c-1.406,0-2.664,0.43-3.773,1.289
	c-1.11,0.86-1.836,1.961-2.18,3.305L7.625,20.5c1.125-1.406,2.5-2.508,4.125-3.305C13.375,16.398,15.125,16,17,16
	c2.156,0,4.148,0.532,5.977,1.594c1.828,1.063,3.273,2.5,4.336,4.313H17.516z"/>
</svg>
